<mxfile host="65bd71144e">
    <diagram id="qeXTaP9J9YP38mxGaQYU" name="Page-1">
        <mxGraphModel dx="1202" dy="557" grid="1" gridSize="10" guides="1" tooltips="1" connect="1" arrows="1" fold="1" page="1" pageScale="1" pageWidth="1169" pageHeight="827" math="0" shadow="0">
            <root>
                <mxCell id="0"/>
                <mxCell id="1" parent="0"/>
                <mxCell id="ReaQBcY6dgilL2wruTsK-4" value="Access Manager" style="rounded=1;whiteSpace=wrap;html=1;" parent="1" vertex="1">
                    <mxGeometry x="440" y="332" width="120" height="60" as="geometry"/>
                </mxCell>
                <mxCell id="ReaQBcY6dgilL2wruTsK-5" value="Decentralized Storage (IPFS)" style="shape=cylinder3;whiteSpace=wrap;html=1;boundedLbl=1;backgroundOutline=1;size=15;" parent="1" vertex="1">
                    <mxGeometry x="140" y="230" width="100" height="140" as="geometry"/>
                </mxCell>
                <mxCell id="ReaQBcY6dgilL2wruTsK-6" value="2) New video" style="edgeStyle=none;rounded=0;orthogonalLoop=1;jettySize=auto;html=1;entryX=0.5;entryY=0;entryDx=0;entryDy=0;" parent="1" target="ReaQBcY6dgilL2wruTsK-4" edge="1">
                    <mxGeometry x="0.0606" relative="1" as="geometry">
                        <mxPoint x="500" y="200" as="sourcePoint"/>
                        <mxPoint x="190" y="240" as="targetPoint"/>
                        <mxPoint as="offset"/>
                    </mxGeometry>
                </mxCell>
                <mxCell id="ReaQBcY6dgilL2wruTsK-13" value="1) Upload a video" style="edgeStyle=none;rounded=0;orthogonalLoop=1;jettySize=auto;html=1;exitX=0;exitY=0.3333333333333333;exitDx=0;exitDy=0;exitPerimeter=0;" parent="1" source="ReaQBcY6dgilL2wruTsK-7" target="ReaQBcY6dgilL2wruTsK-5" edge="1">
                    <mxGeometry relative="1" as="geometry"/>
                </mxCell>
                <mxCell id="ReaQBcY6dgilL2wruTsK-7" value="Alice - content creator" style="shape=umlActor;verticalLabelPosition=bottom;verticalAlign=top;html=1;outlineConnect=0;" parent="1" vertex="1">
                    <mxGeometry x="489" y="120" width="30" height="60" as="geometry"/>
                </mxCell>
            </root>
        </mxGraphModel>
    </diagram>
</mxfile>